# xmcd CD database file
#
# Track frame offsets:
#	150
#	19728
#	42879
#	63599
#	78122
#	99588
#	117575
#	132811
#	150318
#	168616
#	189401
#	211171
#	226015
#
# Disc length: 3154 seconds
#
# Revision: 4
# Processed by: cddbd v1.5.1PL2 Copyright (c) Steve Scherf et al.
# Submitted via: CDex 1.51
#
DISCID=9d0c500d
DTITLE=Ryszard Rynkowski - Dary Losu
DYEAR=2000
DGENRE=Blues
TTITLE0=Dary losu
TTITLE1=Jestem z kamienia
TTITLE2=Dziewczyny lubia braz
TTITLE3=Czas
TTITLE4=Za mlodzi, za starzy
TTITLE5=Urodziny
TTITLE6=Blues dla tych, co nie traca ducha
TTITLE7=Gdy mówia pieniadze
TTITLE8=Ten sam klucz
TTITLE9=Nazwij to snem
TTITLE10=Odbijany
TTITLE11=Widzisz Marto
TTITLE12=Swieto
EXTD=YEAR: 2000
EXTT0=
EXTT1=
EXTT2=
EXTT3=
EXTT4=
EXTT5=
EXTT6=
EXTT7=
EXTT8=
EXTT9=
EXTT10=
EXTT11=
EXTT12=
PLAYORDER=
